<svg width="353" height="151" viewBox="0 0 353 151" fill="none" xmlns="http://www.w3.org/2000/svg">
<path d="M7.325 19.95V22.95H14.625V27.4H7.325V33H1.425V15.5H15.65V19.95H7.325ZM24.3197 33.25C22.8031 33.25 21.4364 32.95 20.2197 32.35C19.0197 31.7333 18.0781 30.8917 17.3947 29.825C16.7114 28.7417 16.3697 27.5167 16.3697 26.15C16.3697 24.7833 16.7114 23.5667 17.3947 22.5C18.0781 21.4167 19.0197 20.575 20.2197 19.975C21.4364 19.375 22.8031 19.075 24.3197 19.075C25.8531 19.075 27.2197 19.375 28.4197 19.975C29.6364 20.575 30.5781 21.4167 31.2447 22.5C31.9281 23.5667 32.2697 24.7833 32.2697 26.15C32.2697 27.5167 31.9281 28.7417 31.2447 29.825C30.5781 30.8917 29.6364 31.7333 28.4197 32.35C27.2197 32.95 25.8531 33.25 24.3197 33.25ZM24.3197 28.85C24.9697 28.85 25.5031 28.6167 25.9197 28.15C26.3364 27.6667 26.5447 27 26.5447 26.15C26.5447 25.3 26.3364 24.6417 25.9197 24.175C25.5031 23.7083 24.9697 23.475 24.3197 23.475C23.6697 23.475 23.1364 23.7083 22.7197 24.175C22.3031 24.6417 22.0947 25.3 22.0947 26.15C22.0947 27 22.3031 27.6667 22.7197 28.15C23.1364 28.6167 23.6697 28.85 24.3197 28.85ZM34.0381 14.45H39.6881V33H34.0381V14.45ZM42.1924 14.45H47.8424V33H42.1924V14.45ZM57.5717 33.25C56.055 33.25 54.6883 32.95 53.4717 32.35C52.2717 31.7333 51.33 30.8917 50.6467 29.825C49.9633 28.7417 49.6217 27.5167 49.6217 26.15C49.6217 24.7833 49.9633 23.5667 50.6467 22.5C51.33 21.4167 52.2717 20.575 53.4717 19.975C54.6883 19.375 56.055 19.075 57.5717 19.075C59.105 19.075 60.4717 19.375 61.6717 19.975C62.8883 20.575 63.83 21.4167 64.4967 22.5C65.18 23.5667 65.5217 24.7833 65.5217 26.15C65.5217 27.5167 65.18 28.7417 64.4967 29.825C63.83 30.8917 62.8883 31.7333 61.6717 32.35C60.4717 32.95 59.105 33.25 57.5717 33.25ZM57.5717 28.85C58.2217 28.85 58.755 28.6167 59.1717 28.15C59.5883 27.6667 59.7967 27 59.7967 26.15C59.7967 25.3 59.5883 24.6417 59.1717 24.175C58.755 23.7083 58.2217 23.475 57.5717 23.475C56.9217 23.475 56.3883 23.7083 55.9717 24.175C55.555 24.6417 55.3467 25.3 55.3467 26.15C55.3467 27 55.555 27.6667 55.9717 28.15C56.3883 28.6167 56.9217 28.85 57.5717 28.85ZM90.2488 19.325L85.4988 33H79.9988L77.9238 26.675L75.7738 33H70.2738L65.5238 19.325H70.8738L73.2238 26.55L75.6738 19.325H80.4738L82.8488 26.625L85.2988 19.325H90.2488ZM113.783 19.325V33H108.408V31.7C107.908 32.2167 107.325 32.6083 106.658 32.875C105.991 33.125 105.283 33.25 104.533 33.25C102.8 33.25 101.408 32.725 100.358 31.675C99.308 30.6083 98.783 29.0083 98.783 26.875V19.325H104.433V25.9C104.433 26.8333 104.583 27.5 104.883 27.9C105.183 28.3 105.625 28.5 106.208 28.5C106.758 28.5 107.216 28.2833 107.583 27.85C107.95 27.4 108.133 26.7 108.133 25.75V19.325H113.783ZM121.639 33.25C120.472 33.25 119.322 33.125 118.189 32.875C117.056 32.625 116.139 32.3 115.439 31.9L116.989 28.175C117.622 28.5583 118.372 28.8583 119.239 29.075C120.106 29.2917 120.947 29.4 121.764 29.4C122.414 29.4 122.864 29.35 123.114 29.25C123.381 29.1333 123.514 28.9667 123.514 28.75C123.514 28.5333 123.347 28.3833 123.014 28.3C122.697 28.2167 122.172 28.1333 121.439 28.05C120.322 27.9167 119.372 27.75 118.589 27.55C117.806 27.3333 117.114 26.925 116.514 26.325C115.931 25.725 115.639 24.8667 115.639 23.75C115.639 22.8667 115.906 22.075 116.439 21.375C116.972 20.675 117.764 20.1167 118.814 19.7C119.881 19.2833 121.156 19.075 122.639 19.075C123.672 19.075 124.681 19.175 125.664 19.375C126.664 19.5583 127.514 19.8333 128.214 20.2L126.664 23.925C125.464 23.2583 124.147 22.925 122.714 22.925C121.481 22.925 120.864 23.1417 120.864 23.575C120.864 23.7917 121.031 23.95 121.364 24.05C121.697 24.1333 122.222 24.2167 122.939 24.3C124.056 24.4333 124.997 24.6083 125.764 24.825C126.547 25.0417 127.231 25.45 127.814 26.05C128.414 26.65 128.714 27.5083 128.714 28.625C128.714 29.475 128.447 30.25 127.914 30.95C127.381 31.65 126.581 32.2083 125.514 32.625C124.447 33.0417 123.156 33.25 121.639 33.25ZM145.145 33.25C143.628 33.25 142.262 32.95 141.045 32.35C139.845 31.7333 138.903 30.8917 138.22 29.825C137.537 28.7417 137.195 27.5167 137.195 26.15C137.195 24.7833 137.537 23.5667 138.22 22.5C138.903 21.4167 139.845 20.575 141.045 19.975C142.262 19.375 143.628 19.075 145.145 19.075C146.678 19.075 148.045 19.375 149.245 19.975C150.462 20.575 151.403 21.4167 152.07 22.5C152.753 23.5667 153.095 24.7833 153.095 26.15C153.095 27.5167 152.753 28.7417 152.07 29.825C151.403 30.8917 150.462 31.7333 149.245 32.35C148.045 32.95 146.678 33.25 145.145 33.25ZM145.145 28.85C145.795 28.85 146.328 28.6167 146.745 28.15C147.162 27.6667 147.37 27 147.37 26.15C147.37 25.3 147.162 24.6417 146.745 24.175C146.328 23.7083 145.795 23.475 145.145 23.475C144.495 23.475 143.962 23.7083 143.545 24.175C143.128 24.6417 142.92 25.3 142.92 26.15C142.92 27 143.128 27.6667 143.545 28.15C143.962 28.6167 144.495 28.85 145.145 28.85ZM164.363 19.075C166.047 19.075 167.397 19.5833 168.413 20.6C169.447 21.6167 169.963 23.15 169.963 25.2V33H164.313V26.175C164.313 24.6083 163.755 23.825 162.638 23.825C162.005 23.825 161.488 24.05 161.088 24.5C160.705 24.9333 160.513 25.625 160.513 26.575V33H154.863V19.325H160.238V20.675C160.772 20.1417 161.388 19.7417 162.088 19.475C162.788 19.2083 163.547 19.075 164.363 19.075ZM185.262 33.25C184.095 33.25 182.945 33.125 181.812 32.875C180.679 32.625 179.762 32.3 179.062 31.9L180.612 28.175C181.245 28.5583 181.995 28.8583 182.862 29.075C183.729 29.2917 184.57 29.4 185.387 29.4C186.037 29.4 186.487 29.35 186.737 29.25C187.004 29.1333 187.137 28.9667 187.137 28.75C187.137 28.5333 186.97 28.3833 186.637 28.3C186.32 28.2167 185.795 28.1333 185.062 28.05C183.945 27.9167 182.995 27.75 182.212 27.55C181.429 27.3333 180.737 26.925 180.137 26.325C179.554 25.725 179.262 24.8667 179.262 23.75C179.262 22.8667 179.529 22.075 180.062 21.375C180.595 20.675 181.387 20.1167 182.437 19.7C183.504 19.2833 184.779 19.075 186.262 19.075C187.295 19.075 188.304 19.175 189.287 19.375C190.287 19.5583 191.137 19.8333 191.837 20.2L190.287 23.925C189.087 23.2583 187.77 22.925 186.337 22.925C185.104 22.925 184.487 23.1417 184.487 23.575C184.487 23.7917 184.654 23.95 184.987 24.05C185.32 24.1333 185.845 24.2167 186.562 24.3C187.679 24.4333 188.62 24.6083 189.387 24.825C190.17 25.0417 190.854 25.45 191.437 26.05C192.037 26.65 192.337 27.5083 192.337 28.625C192.337 29.475 192.07 30.25 191.537 30.95C191.004 31.65 190.204 32.2083 189.137 32.625C188.07 33.0417 186.779 33.25 185.262 33.25ZM201.273 33.25C199.756 33.25 198.39 32.95 197.173 32.35C195.973 31.7333 195.031 30.8917 194.348 29.825C193.665 28.7417 193.323 27.5167 193.323 26.15C193.323 24.7833 193.665 23.5667 194.348 22.5C195.031 21.4167 195.973 20.575 197.173 19.975C198.39 19.375 199.756 19.075 201.273 19.075C202.806 19.075 204.173 19.375 205.373 19.975C206.59 20.575 207.531 21.4167 208.198 22.5C208.881 23.5667 209.223 24.7833 209.223 26.15C209.223 27.5167 208.881 28.7417 208.198 29.825C207.531 30.8917 206.59 31.7333 205.373 32.35C204.173 32.95 202.806 33.25 201.273 33.25ZM201.273 28.85C201.923 28.85 202.456 28.6167 202.873 28.15C203.29 27.6667 203.498 27 203.498 26.15C203.498 25.3 203.29 24.6417 202.873 24.175C202.456 23.7083 201.923 23.475 201.273 23.475C200.623 23.475 200.09 23.7083 199.673 24.175C199.256 24.6417 199.048 25.3 199.048 26.15C199.048 27 199.256 27.6667 199.673 28.15C200.09 28.6167 200.623 28.85 201.273 28.85ZM218.341 33.25C216.791 33.25 215.4 32.95 214.166 32.35C212.95 31.75 211.991 30.9083 211.291 29.825C210.608 28.7417 210.266 27.5167 210.266 26.15C210.266 24.7833 210.608 23.5667 211.291 22.5C211.991 21.4167 212.95 20.575 214.166 19.975C215.4 19.375 216.791 19.075 218.341 19.075C220.008 19.075 221.433 19.4333 222.616 20.15C223.8 20.8667 224.616 21.8583 225.066 23.125L220.691 25.275C220.158 24.075 219.366 23.475 218.316 23.475C217.65 23.475 217.091 23.7083 216.641 24.175C216.208 24.6417 215.991 25.3 215.991 26.15C215.991 27.0167 216.208 27.6833 216.641 28.15C217.091 28.6167 217.65 28.85 218.316 28.85C219.366 28.85 220.158 28.25 220.691 27.05L225.066 29.2C224.616 30.4667 223.8 31.4583 222.616 32.175C221.433 32.8917 220.008 33.25 218.341 33.25ZM226.372 19.325H232.022V33H226.372V19.325ZM229.197 18.225C228.18 18.225 227.355 17.9583 226.722 17.425C226.105 16.875 225.797 16.1833 225.797 15.35C225.797 14.5167 226.105 13.8333 226.722 13.3C227.355 12.75 228.18 12.475 229.197 12.475C230.23 12.475 231.055 12.7333 231.672 13.25C232.289 13.7667 232.597 14.4333 232.597 15.25C232.597 16.1167 232.289 16.8333 231.672 17.4C231.055 17.95 230.23 18.225 229.197 18.225ZM240.651 19.075C243.051 19.075 244.885 19.6167 246.151 20.7C247.418 21.7667 248.051 23.4167 248.051 25.65V33H242.801V31.2C242.151 32.5667 240.86 33.25 238.926 33.25C237.843 33.25 236.918 33.0667 236.151 32.7C235.401 32.3167 234.826 31.8083 234.426 31.175C234.043 30.525 233.851 29.8 233.851 29C233.851 27.65 234.368 26.625 235.401 25.925C236.435 25.225 238.001 24.875 240.101 24.875H242.376C242.193 23.8083 241.335 23.275 239.801 23.275C239.185 23.275 238.56 23.375 237.926 23.575C237.293 23.7583 236.751 24.0167 236.301 24.35L234.501 20.625C235.285 20.1417 236.226 19.7667 237.326 19.5C238.443 19.2167 239.551 19.075 240.651 19.075ZM240.626 29.85C241.026 29.85 241.385 29.7417 241.701 29.525C242.018 29.3083 242.251 28.9833 242.401 28.55V27.6H241.001C239.851 27.6 239.276 27.9833 239.276 28.75C239.276 29.0667 239.393 29.3333 239.626 29.55C239.876 29.75 240.21 29.85 240.626 29.85ZM250.493 14.45H256.143V33H250.493V14.45ZM284.243 19.075C285.893 19.075 287.209 19.5833 288.193 20.6C289.193 21.6167 289.693 23.15 289.693 25.2V33H284.043V26.175C284.043 24.6083 283.534 23.825 282.518 23.825C281.984 23.825 281.551 24.025 281.218 24.425C280.901 24.825 280.743 25.4583 280.743 26.325V33H275.093V26.175C275.093 24.6083 274.584 23.825 273.568 23.825C273.034 23.825 272.601 24.025 272.268 24.425C271.951 24.825 271.793 25.4583 271.793 26.325V33H266.143V19.325H271.518V20.6C272.534 19.5833 273.826 19.075 275.393 19.075C276.309 19.075 277.134 19.25 277.868 19.6C278.601 19.9333 279.201 20.45 279.668 21.15C280.218 20.4833 280.884 19.975 281.668 19.625C282.451 19.2583 283.309 19.075 284.243 19.075ZM306.938 26.15C306.938 26.2333 306.913 26.675 306.863 27.475H297.363C297.563 27.9917 297.896 28.3917 298.363 28.675C298.829 28.9417 299.413 29.075 300.113 29.075C300.713 29.075 301.213 29 301.613 28.85C302.029 28.7 302.479 28.4417 302.963 28.075L305.913 31.05C304.579 32.5167 302.588 33.25 299.938 33.25C298.288 33.25 296.838 32.95 295.588 32.35C294.338 31.7333 293.371 30.8833 292.688 29.8C292.004 28.7167 291.663 27.5 291.663 26.15C291.663 24.7833 291.996 23.5667 292.663 22.5C293.346 21.4167 294.271 20.575 295.438 19.975C296.621 19.375 297.946 19.075 299.413 19.075C300.796 19.075 302.054 19.35 303.188 19.9C304.338 20.45 305.246 21.2583 305.913 22.325C306.596 23.3917 306.938 24.6667 306.938 26.15ZM299.463 22.925C298.879 22.925 298.396 23.0833 298.013 23.4C297.629 23.7167 297.379 24.1667 297.263 24.75H301.663C301.546 24.1833 301.296 23.7417 300.913 23.425C300.529 23.0917 300.046 22.925 299.463 22.925ZM323.846 14.45V33H318.471V31.875C317.654 32.7917 316.404 33.25 314.721 33.25C313.521 33.25 312.412 32.9667 311.396 32.4C310.396 31.8167 309.596 30.9833 308.996 29.9C308.412 28.8167 308.121 27.5667 308.121 26.15C308.121 24.7333 308.412 23.4917 308.996 22.425C309.596 21.3417 310.396 20.5167 311.396 19.95C312.412 19.3667 313.521 19.075 314.721 19.075C316.237 19.075 317.396 19.4667 318.196 20.25V14.45H323.846ZM316.071 28.85C316.721 28.85 317.254 28.6167 317.671 28.15C318.087 27.6667 318.296 27 318.296 26.15C318.296 25.3 318.087 24.6417 317.671 24.175C317.254 23.7083 316.721 23.475 316.071 23.475C315.421 23.475 314.887 23.7083 314.471 24.175C314.054 24.6417 313.846 25.3 313.846 26.15C313.846 27 314.054 27.6667 314.471 28.15C314.887 28.6167 315.421 28.85 316.071 28.85ZM326.348 19.325H331.998V33H326.348V19.325ZM329.173 18.225C328.156 18.225 327.331 17.9583 326.698 17.425C326.081 16.875 325.773 16.1833 325.773 15.35C325.773 14.5167 326.081 13.8333 326.698 13.3C327.331 12.75 328.156 12.475 329.173 12.475C330.206 12.475 331.031 12.7333 331.648 13.25C332.264 13.7667 332.573 14.4333 332.573 15.25C332.573 16.1167 332.264 16.8333 331.648 17.4C331.031 17.95 330.206 18.225 329.173 18.225ZM340.627 19.075C343.027 19.075 344.86 19.6167 346.127 20.7C347.394 21.7667 348.027 23.4167 348.027 25.65V33H342.777V31.2C342.127 32.5667 340.835 33.25 338.902 33.25C337.819 33.25 336.894 33.0667 336.127 32.7C335.377 32.3167 334.802 31.8083 334.402 31.175C334.019 30.525 333.827 29.8 333.827 29C333.827 27.65 334.344 26.625 335.377 25.925C336.41 25.225 337.977 24.875 340.077 24.875H342.352C342.169 23.8083 341.31 23.275 339.777 23.275C339.16 23.275 338.535 23.375 337.902 23.575C337.269 23.7583 336.727 24.0167 336.277 24.35L334.477 20.625C335.26 20.1417 336.202 19.7667 337.302 19.5C338.419 19.2167 339.527 19.075 340.627 19.075ZM340.602 29.85C341.002 29.85 341.36 29.7417 341.677 29.525C341.994 29.3083 342.227 28.9833 342.377 28.55V27.6H340.977C339.827 27.6 339.252 27.9833 339.252 28.75C339.252 29.0667 339.369 29.3333 339.602 29.55C339.852 29.75 340.185 29.85 340.602 29.85Z" fill="#241400"/>
<g clip-path="url(#clip0_2416_3430)">
<path fill-rule="evenodd" clip-rule="evenodd" d="M0 111.223C0 131.11 14.4433 147.647 33.3333 151V122.11H23.3333V111H33.3333V102.11C33.3333 92.11 39.7767 86.5567 48.89 86.5567C51.7767 86.5567 54.89 87 57.7767 87.4433V97.6667H52.6667C47.7767 97.6667 46.6667 100.11 46.6667 103.223V111H57.3333L55.5567 122.11H46.6667V151C65.5567 147.647 80 131.113 80 111.223C80 89.1 62 71 40 71C18 71 0 89.1 0 111.223Z" fill="#241400"/>
</g>
<path d="M222.568 87.5405C219.311 88.9838 215.812 89.9589 212.134 90.3997C215.929 88.1287 218.768 84.5544 220.122 80.3438C216.556 82.4618 212.654 83.9527 208.584 84.7516C205.847 81.8295 202.222 79.8926 198.272 79.2418C194.322 78.591 190.267 79.2626 186.738 81.1523C183.208 83.042 180.401 86.0441 178.753 89.6925C177.104 93.3409 176.706 97.4316 177.621 101.329C170.396 100.966 163.327 99.0885 156.875 95.8173C150.423 92.546 144.73 87.9546 140.167 82.341C138.607 85.0324 137.71 88.1529 137.71 91.4763C137.708 94.468 138.445 97.414 139.854 100.053C141.264 102.691 143.304 104.941 145.792 106.603C142.906 106.511 140.084 105.731 137.561 104.329V104.563C137.561 108.759 139.012 112.826 141.669 116.074C144.326 119.321 148.025 121.55 152.138 122.381C149.461 123.105 146.655 123.212 143.931 122.693C145.091 126.304 147.352 129.461 150.396 131.723C153.44 133.985 157.115 135.238 160.907 135.308C154.47 140.361 146.521 143.102 138.338 143.089C136.888 143.09 135.44 143.005 134 142.836C142.306 148.177 151.975 151.011 161.851 151C195.279 151 213.553 123.313 213.553 99.3009C213.553 98.5208 213.534 97.7329 213.499 96.9527C217.053 94.3821 220.122 91.1989 222.56 87.5522L222.568 87.5405Z" fill="#241400"/>
<path fill-rule="evenodd" clip-rule="evenodd" d="M299.261 76.4645C303.073 76.289 304.289 76.25 314 76.25C323.711 76.25 324.927 76.2922 328.736 76.4645C332.545 76.6367 335.144 77.2445 337.419 78.1252C339.802 79.0255 341.963 80.4327 343.75 82.2527C345.57 84.037 346.975 86.195 347.872 88.5805C348.756 90.8555 349.36 93.4555 349.535 97.258C349.711 101.077 349.75 102.292 349.75 112C349.75 121.711 349.708 122.926 349.535 126.739C349.363 130.541 348.756 133.141 347.872 135.416C346.974 137.802 345.568 139.964 343.75 141.75C341.963 143.57 339.802 144.974 337.419 145.871C335.144 146.756 332.544 147.36 328.742 147.535C324.926 147.711 323.711 147.75 314 147.75C304.289 147.75 303.073 147.708 299.261 147.535C295.459 147.363 292.859 146.756 290.584 145.871C288.198 144.974 286.036 143.568 284.249 141.75C282.431 139.965 281.023 137.805 280.125 135.419C279.245 133.144 278.64 130.544 278.464 126.742C278.289 122.923 278.25 121.708 278.25 112C278.25 102.289 278.292 101.073 278.464 97.2645C278.637 93.4555 279.245 90.8555 280.125 88.5805C281.025 86.1953 282.433 84.0348 284.253 82.2495C286.037 80.4311 288.197 79.0237 290.581 78.1252C292.856 77.2445 295.456 76.64 299.258 76.4645H299.261ZM328.446 82.8995C324.676 82.7272 323.545 82.6915 314 82.6915C304.455 82.6915 303.324 82.7272 299.554 82.8995C296.066 83.0587 294.175 83.6405 292.914 84.1312C291.247 84.7812 290.054 85.5515 288.803 86.8027C287.617 87.9567 286.704 89.3614 286.131 90.914C285.641 92.175 285.059 94.0665 284.899 97.5537C284.727 101.324 284.692 102.455 284.692 112C284.692 121.545 284.727 122.676 284.899 126.446C285.059 129.933 285.641 131.825 286.131 133.086C286.703 134.636 287.617 136.043 288.803 137.197C289.957 138.383 291.364 139.297 292.914 139.869C294.175 140.359 296.066 140.941 299.554 141.1C303.324 141.273 304.451 141.308 314 141.308C323.549 141.308 324.676 141.273 328.446 141.1C331.933 140.941 333.825 140.359 335.086 139.869C336.753 139.219 337.946 138.448 339.197 137.197C340.383 136.043 341.297 134.636 341.869 133.086C342.36 131.825 342.941 129.933 343.101 126.446C343.273 122.676 343.309 121.545 343.309 112C343.309 102.455 343.273 101.324 343.101 97.5537C342.941 94.0665 342.36 92.175 341.869 90.914C341.219 89.2467 340.449 88.054 339.197 86.8027C338.043 85.6167 336.639 84.7039 335.086 84.1312C333.825 83.6405 331.933 83.0587 328.446 82.8995ZM309.434 123.021C311.984 124.082 314.823 124.226 317.468 123.426C320.112 122.627 322.396 120.934 323.931 118.637C325.465 116.341 326.155 113.582 325.882 110.834C325.609 108.085 324.39 105.516 322.434 103.566C321.187 102.32 319.678 101.365 318.018 100.772C316.358 100.178 314.586 99.9599 312.832 100.133C311.077 100.306 309.382 100.866 307.87 101.773C306.357 102.679 305.065 103.91 304.085 105.376C303.106 106.842 302.463 108.507 302.204 110.251C301.945 111.996 302.076 113.775 302.588 115.463C303.099 117.15 303.979 118.703 305.162 120.01C306.346 121.317 307.805 122.345 309.434 123.021ZM301.007 99.0065C302.713 97.3002 304.739 95.9466 306.968 95.0232C309.197 94.0997 311.587 93.6244 314 93.6244C316.413 93.6244 318.803 94.0997 321.032 95.0232C323.261 95.9466 325.287 97.3002 326.993 99.0065C328.7 100.713 330.053 102.739 330.977 104.968C331.9 107.197 332.376 109.587 332.376 112C332.376 114.413 331.9 116.803 330.977 119.032C330.053 121.261 328.7 123.287 326.993 124.993C323.547 128.44 318.874 130.376 314 130.376C309.126 130.376 304.453 128.44 301.007 124.993C297.56 121.547 295.624 116.874 295.624 112C295.624 107.126 297.56 102.453 301.007 99.0065ZM336.451 96.361C336.874 95.9621 337.212 95.4825 337.446 94.9504C337.681 94.4184 337.806 93.8447 337.814 93.2635C337.823 92.6823 337.714 92.1053 337.496 91.5666C337.277 91.028 336.953 90.5387 336.542 90.1276C336.131 89.7166 335.642 89.3922 335.103 89.1737C334.564 88.9552 333.987 88.8469 333.406 88.8554C332.825 88.8639 332.251 88.9889 331.719 89.223C331.187 89.4572 330.707 89.7957 330.308 90.2185C329.533 91.0408 329.108 92.1331 329.125 93.2635C329.141 94.3939 329.597 95.4734 330.397 96.2727C331.196 97.0721 332.276 97.5285 333.406 97.545C334.536 97.5614 335.629 97.1367 336.451 96.361Z" fill="#241400"/>
<defs>
<clipPath id="clip0_2416_3430">
<rect width="80" height="80" fill="white" transform="translate(0 71)"/>
</clipPath>
</defs>
</svg>